<svg width="40" height="40" viewBox="0 0 40 40" fill="none" xmlns="http://www.w3.org/2000/svg">
<path d="M0 20C0 8.95431 8.95431 0 20 0C31.0457 0 40 8.95431 40 20C40 31.0457 31.0457 40 20 40C8.95431 40 0 31.0457 0 20Z" fill="white"/>
<path d="M20.2473 20.1124L18.3948 21.9649C17.3673 22.9924 17.3673 24.6499 18.3948 25.6774C19.4223 26.7049 21.0798 26.7049 22.1073 25.6774L25.0248 22.7599C27.0723 20.7124 27.0723 17.3824 25.0248 15.3349C22.9773 13.2874 19.6473 13.2874 17.5998 15.3349L14.4198 18.5149C12.6648 20.2699 12.6648 23.1199 14.4198 24.8824" stroke="#262626" stroke-width="2" stroke-linecap="round" stroke-linejoin="round"/>
</svg>
