<svg width="40" height="40" viewBox="0 0 40 40" fill="none" xmlns="http://www.w3.org/2000/svg">
<path d="M0 20C0 8.95431 8.95431 0 20 0C31.0457 0 40 8.95431 40 20C40 31.0457 31.0457 40 20 40C8.95431 40 0 31.0457 0 20Z" fill="#4C8DDB"/>
<path d="M12.5 20C12.5 18.64 12.835 17.385 13.505 16.235C14.175 15.085 15.085 14.175 16.235 13.505C17.385 12.835 18.64 12.5 20 12.5C21.36 12.5 22.615 12.835 23.765 13.505C24.915 14.175 25.825 15.085 26.495 16.235C27.165 17.385 27.5 18.64 27.5 20C27.5 21.36 27.165 22.615 26.495 23.765C25.825 24.915 24.915 25.825 23.765 26.495C22.615 27.165 21.36 27.5 20 27.5C18.64 27.5 17.385 27.165 16.235 26.495C15.085 25.825 14.175 24.915 13.505 23.765C12.835 22.615 12.5 21.36 12.5 20ZM13.745 20C13.745 21.56 14.27 22.935 15.32 24.125C15.8 23.185 16.56 22.29 17.6 21.44C18.64 20.59 19.655 20.055 20.645 19.835C20.495 19.485 20.35 19.17 20.21 18.89C18.49 19.44 16.63 19.715 14.63 19.715C14.24 19.715 13.95 19.71 13.76 19.7C13.76 19.74 13.7575 19.79 13.7525 19.85C13.7475 19.91 13.745 19.96 13.745 20ZM13.94 18.455C14.16 18.475 14.485 18.485 14.915 18.485C16.585 18.485 18.17 18.26 19.67 17.81C18.91 16.46 18.075 15.335 17.165 14.435C16.375 14.835 15.6975 15.39 15.1325 16.1C14.5675 16.81 14.17 17.595 13.94 18.455ZM16.175 24.935C17.305 25.815 18.58 26.255 20 26.255C20.74 26.255 21.475 26.115 22.205 25.835C22.005 24.125 21.615 22.47 21.035 20.87C20.115 21.07 19.1875 21.575 18.2525 22.385C17.3175 23.195 16.625 24.045 16.175 24.935ZM18.47 13.955C19.35 14.865 20.165 16 20.915 17.36C22.275 16.79 23.3 16.065 23.99 15.185C22.83 14.225 21.5 13.745 20 13.745C19.49 13.745 18.98 13.815 18.47 13.955ZM21.455 18.425C21.605 18.745 21.775 19.15 21.965 19.64C22.705 19.57 23.51 19.535 24.38 19.535C25 19.535 25.615 19.55 26.225 19.58C26.145 18.22 25.655 17.01 24.755 15.95C24.105 16.92 23.005 17.745 21.455 18.425ZM22.34 20.69C22.85 22.17 23.195 23.69 23.375 25.25C24.165 24.74 24.81 24.085 25.31 23.285C25.81 22.485 26.11 21.62 26.21 20.69C25.48 20.64 24.815 20.615 24.215 20.615C23.665 20.615 23.04 20.64 22.34 20.69Z" fill="white"/>
</svg>
