<svg width="40" height="40" viewBox="0 0 40 40" fill="none" xmlns="http://www.w3.org/2000/svg">
<path d="M0 20C0 8.95431 8.95431 0 20 0C31.0457 0 40 8.95431 40 20C40 31.0457 31.0457 40 20 40C8.95431 40 0 31.0457 0 20Z" fill="#4C8DDB"/>
<g clip-path="url(#clip0_314_3178)">
<path d="M18.5537 19.4625C18.5537 19.4625 19.9732 19.35 19.9732 17.5732C19.9732 15.7964 18.8119 14.9292 17.3408 14.9292H12.5V24.8587H17.3408C17.3408 24.8587 20.2959 24.9583 20.2959 21.928C20.2959 21.928 20.4247 19.4625 18.5537 19.4625ZM16.9923 16.6941H17.3408C17.3408 16.6941 17.9988 16.6941 17.9988 17.7272C17.9988 18.7602 17.6118 18.9099 17.1729 18.9099H14.6329V16.6941H16.9923ZM17.204 23.0939H14.6329V20.4404H17.3408C17.3408 20.4404 18.3215 20.4266 18.3215 21.804C18.3215 22.9654 17.589 23.0851 17.204 23.0939ZM24.237 17.4556C20.6595 17.4556 20.6627 21.2708 20.6627 21.2708C20.6627 21.2708 20.4173 25.0664 24.237 25.0664C24.237 25.0664 27.4201 25.2605 27.4201 22.426H25.7831C25.7831 22.426 25.8377 23.4934 24.2916 23.4934C24.2916 23.4934 22.6543 23.6105 22.6543 21.7659H27.4747C27.4747 21.7659 28.0022 17.4556 24.237 17.4556ZM22.6363 20.4404C22.6363 20.4404 22.8362 18.9099 24.2734 18.9099C25.7103 18.9099 25.6923 20.4404 25.6923 20.4404H22.6363ZM26.0736 16.7369H22.2356V15.5142H26.0736V16.7369Z" fill="white"/>
</g>
<defs>
<clipPath id="clip0_314_3178">
<rect width="18" height="11.7" fill="white" transform="translate(11 14.1499)"/>
</clipPath>
</defs>
</svg>
