<svg width="40" height="40" viewBox="0 0 40 40" fill="none" xmlns="http://www.w3.org/2000/svg">
<path d="M0 20C0 8.95431 8.95431 0 20 0C31.0457 0 40 8.95431 40 20C40 31.0457 31.0457 40 20 40C8.95431 40 0 31.0457 0 20Z" fill="#3B3B3B"/>
<path d="M16.4714 26.0402V17.9689H13.7779V26.0402H16.4717H16.4714ZM15.1252 16.8671C16.0643 16.8671 16.649 16.2473 16.649 15.4728C16.6314 14.6806 16.0643 14.0781 15.1431 14.0781C14.2212 14.0781 13.6191 14.6806 13.6191 15.4727C13.6191 16.2473 14.2036 16.867 15.1076 16.867H15.125L15.1252 16.8671ZM17.9623 26.0402H20.6557V21.5333C20.6557 21.2924 20.6732 21.0509 20.7444 20.8788C20.939 20.3966 21.3822 19.8975 22.1265 19.8975C23.1009 19.8975 23.4909 20.6376 23.4909 21.7227V26.0402H26.1841V21.4124C26.1841 18.9333 24.8555 17.7797 23.0834 17.7797C21.6305 17.7797 20.9925 18.5885 20.6379 19.1394H20.6559V17.9692H17.9625C17.9976 18.7264 17.9623 26.0404 17.9623 26.0404L17.9623 26.0402Z" fill="white"/>
</svg>
