<svg width="40" height="40" viewBox="0 0 40 40" fill="none" xmlns="http://www.w3.org/2000/svg">
<path d="M0 20C0 8.95431 8.95431 0 20 0C31.0457 0 40 8.95431 40 20C40 31.0457 31.0457 40 20 40C8.95431 40 0 31.0457 0 20Z" fill="#4C8DDB"/>
<path d="M17.5008 20.0007C17.5008 18.6199 18.6199 17.5002 20.0007 17.5002C21.3814 17.5002 22.5011 18.6199 22.5011 20.0007C22.5011 21.3814 21.3814 22.5011 20.0007 22.5011C18.6199 22.5011 17.5008 21.3814 17.5008 20.0007ZM16.1492 20.0007C16.1492 22.1279 17.8735 23.8522 20.0007 23.8522C22.1279 23.8522 23.8522 22.1279 23.8522 20.0007C23.8522 17.8735 22.1279 16.1492 20.0007 16.1492C17.8735 16.1492 16.1492 17.8735 16.1492 20.0007ZM23.1045 15.9965C23.1045 16.4933 23.5074 16.8968 24.0049 16.8968C24.5017 16.8968 24.9052 16.4933 24.9052 15.9965C24.9052 15.4997 24.5023 15.0968 24.0049 15.0968C23.5074 15.0968 23.1045 15.4997 23.1045 15.9965ZM16.9701 26.106C16.2388 26.0727 15.8414 25.9509 15.5772 25.8479C15.227 25.7116 14.9774 25.5492 14.7145 25.2869C14.4521 25.0245 14.2891 24.7749 14.1534 24.4247C14.0504 24.1606 13.9286 23.7631 13.8953 23.0318C13.859 22.2412 13.8517 22.0037 13.8517 20.0007C13.8517 17.9977 13.8596 17.7608 13.8953 16.9695C13.9286 16.2382 14.051 15.8414 14.1534 15.5766C14.2897 15.2264 14.4521 14.9768 14.7145 14.7138C14.9768 14.4515 15.2264 14.2885 15.5772 14.1528C15.8414 14.0498 16.2388 13.928 16.9701 13.8947C17.7608 13.8584 17.9983 13.8511 20.0007 13.8511C22.0037 13.8511 22.2406 13.859 23.0318 13.8947C23.7631 13.928 24.16 14.0504 24.4247 14.1528C24.7749 14.2885 25.0245 14.4515 25.2875 14.7138C25.5498 14.9762 25.7122 15.2264 25.8485 15.5766C25.9515 15.8408 26.0733 16.2382 26.1066 16.9695C26.143 17.7608 26.1502 17.9977 26.1502 20.0007C26.1502 22.0031 26.143 22.2406 26.1066 23.0318C26.0733 23.7631 25.9509 24.1606 25.8485 24.4247C25.7122 24.7749 25.5498 25.0245 25.2875 25.2869C25.0251 25.5492 24.7749 25.7116 24.4247 25.8479C24.1606 25.9509 23.7631 26.0727 23.0318 26.106C22.2412 26.1424 22.0037 26.1496 20.0007 26.1496C17.9983 26.1496 17.7608 26.1424 16.9701 26.106ZM16.9083 12.5454C16.1098 12.5818 15.5645 12.7084 15.0877 12.8938C14.5945 13.0853 14.1764 13.3422 13.759 13.759C13.3422 14.1758 13.0853 14.5939 12.8938 15.0877C12.7084 15.5645 12.5818 16.1098 12.5454 16.9083C12.5085 17.7081 12.5 17.9637 12.5 20.0007C12.5 22.0376 12.5085 22.2933 12.5454 23.093C12.5818 23.8916 12.7084 24.4368 12.8938 24.9137C13.0853 25.4068 13.3416 25.8255 13.759 26.2423C14.1758 26.6592 14.5939 26.9155 15.0877 27.1075C15.5651 27.2929 16.1098 27.4195 16.9083 27.4559C17.7087 27.4922 17.9637 27.5013 20.0007 27.5013C22.0382 27.5013 22.2933 27.4929 23.093 27.4559C23.8916 27.4195 24.4368 27.2929 24.9137 27.1075C25.4068 26.9155 25.8249 26.6592 26.2423 26.2423C26.6592 25.8255 26.9155 25.4068 27.1075 24.9137C27.2929 24.4368 27.4201 23.8916 27.4559 23.093C27.4922 22.2927 27.5007 22.0376 27.5007 20.0007C27.5007 17.9637 27.4922 17.7081 27.4559 16.9083C27.4195 16.1098 27.2929 15.5645 27.1075 15.0877C26.9155 14.5945 26.6592 14.1764 26.2423 13.759C25.8255 13.3422 25.4068 13.0853 24.9143 12.8938C24.4368 12.7084 23.8916 12.5812 23.0936 12.5454C22.2939 12.5091 22.0382 12.5 20.0013 12.5C17.9637 12.5 17.7087 12.5085 16.9083 12.5454Z" fill="white"/>
</svg>
